{
	"asset":{
		"generator":"Khronos glTF Blender I/O v4.1.63",
		"version":"2.0"
	},
	"extensionsUsed":[
		"KHR_materials_specular",
		"KHR_materials_ior",
		"KHR_materials_emissive_strength"
	],
	"scene":0,
	"scenes":[
		{
			"name":"Scene",
			"nodes":[
				0,
				1,
				2,
				3,
				4,
				5,
				6,
				7,
				8
			]
		}
	],
	"nodes":[
		{
			"name":"Empty",
			"rotation":[
				0.7071068286895752,
				0,
				0,
				0.7071068286895752
			],
			"translation":[
				0,
				1.476438045501709,
				0
			]
		},
		{
			"mesh":0,
			"name":"Cube",
			"scale":[
				0.6954120397567749,
				0.6954120397567749,
				0.6954120397567749
			]
		},
		{
			"mesh":1,
			"name":"Cylinder.001",
			"scale":[
				0.5904794335365295,
				0.5904794335365295,
				0.5904794335365295
			],
			"translation":[
				0,
				1.0559484958648682,
				0
			]
		},
		{
			"mesh":2,
			"name":"Circle.001",
			"scale":[
				0.18085594475269318,
				0.18105311691761017,
				0.18085594475269318
			],
			"translation":[
				-0.0013726644683629274,
				2.6022562980651855,
				0
			]
		},
		{
			"mesh":3,
			"name":"Circle.002",
			"scale":[
				0.18085594475269318,
				0.18105311691761017,
				0.18085594475269318
			],
			"translation":[
				-0.0013726644683629274,
				2.6022562980651855,
				0
			]
		},
		{
			"mesh":4,
			"name":"Cylinder.002",
			"scale":[
				0.5904794335365295,
				0.5904794335365295,
				0.5904794335365295
			],
			"translation":[
				0,
				1.0559484958648682,
				0
			]
		},
		{
			"mesh":5,
			"name":"Plane.001",
			"scale":[
				84.5191650390625,
				8.451916694641113,
				8.451916694641113
			],
			"translation":[
				0,
				0.007786327973008156,
				-1.8000749349594116
			]
		},
		{
			"mesh":6,
			"name":"linear Gradient PSD",
			"rotation":[
				0.6781336665153503,
				-0.6781336665153503,
				-0.2003365457057953,
				0.20033656060695648
			],
			"scale":[
				7.782277584075928,
				7.782278060913086,
				7.782278060913086
			],
			"translation":[
				-4.2863922119140625,
				6.48937463760376,
				5.750133037567139
			]
		},
		{
			"mesh":7,
			"name":"linear Gradient PSD.001",
			"rotation":[
				0.6916713714599609,
				-0.6916711926460266,
				-0.14693811535835266,
				0.14693813025951385
			],
			"scale":[
				7.782277584075928,
				7.782277584075928,
				6.045839786529541
			],
			"translation":[
				8.0689697265625,
				6.48937463760376,
				-0.38500720262527466
			]
		}
	],
	"animations":[
		{
			"channels":[
				{
					"sampler":0,
					"target":{
						"node":1,
						"path":"translation"
					}
				},
				{
					"sampler":1,
					"target":{
						"node":1,
						"path":"rotation"
					}
				},
				{
					"sampler":2,
					"target":{
						"node":1,
						"path":"scale"
					}
				}
			],
			"name":"CubeAction",
			"samplers":[
				{
					"input":31,
					"interpolation":"STEP",
					"output":32
				},
				{
					"input":33,
					"interpolation":"LINEAR",
					"output":34
				},
				{
					"input":31,
					"interpolation":"STEP",
					"output":35
				}
			]
		}
	],
	"materials":[
		{
			"doubleSided":true,
			"name":"wave",
			"pbrMetallicRoughness":{
				"metallicFactor":0
			}
		},
		{
			"doubleSided":true,
			"extensions":{
				"KHR_materials_specular":{
					"specularColorFactor":[
						2.0,
						2.0,
						2.0
					]
				},
				"KHR_materials_ior":{
					"ior":1.4500000476837158
				}
			},
			"name":"Material.003",
			"pbrMetallicRoughness":{
				"baseColorFactor":[
					0.6832507252693176,
					0.6832507252693176,
					0.6832507252693176,
					1
				],
				"metallicFactor":0,
				"roughnessFactor":0.0015105828642845154
			}
		},
		{
			"doubleSided":true,
			"emissiveFactor":[
				1,
				1,
				1
			],
			"emissiveTexture":{
				"index":0
			},
			"extensions":{
				"KHR_materials_emissive_strength":{
					"emissiveStrength":13
				}
			},
			"name":"Material.001",
			"pbrMetallicRoughness":{
				"baseColorFactor":[
					0,
					0,
					0,
					1
				]
			}
		},
		{
			"doubleSided":true,
			"emissiveFactor":[
				1,
				1,
				1
			],
			"emissiveTexture":{
				"index":1
			},
			"extensions":{
				"KHR_materials_emissive_strength":{
					"emissiveStrength":5
				}
			},
			"name":"Material.002",
			"pbrMetallicRoughness":{
				"baseColorFactor":[
					0,
					0,
					0,
					1
				]
			}
		}
	],
	"meshes":[
		{
			"name":"Cube",
			"primitives":[
				{
					"attributes":{
						"POSITION":0,
						"NORMAL":1,
						"TEXCOORD_0":2
					},
					"indices":3,
					"material":0
				}
			]
		},
		{
			"name":"Cylinder.001",
			"primitives":[
				{
					"attributes":{
						"POSITION":4,
						"NORMAL":5,
						"TEXCOORD_0":6
					},
					"indices":7
				}
			]
		},
		{
			"name":"Circle.001",
			"primitives":[
				{
					"attributes":{
						"POSITION":8,
						"NORMAL":9,
						"TEXCOORD_0":10
					},
					"indices":11
				}
			]
		},
		{
			"name":"Circle.002",
			"primitives":[
				{
					"attributes":{
						"POSITION":12,
						"NORMAL":13,
						"TEXCOORD_0":14
					},
					"indices":15
				}
			]
		},
		{
			"name":"Cylinder.003",
			"primitives":[
				{
					"attributes":{
						"POSITION":16,
						"NORMAL":17,
						"TEXCOORD_0":18
					},
					"indices":19
				}
			]
		},
		{
			"name":"Plane.001",
			"primitives":[
				{
					"attributes":{
						"POSITION":20,
						"NORMAL":21,
						"TEXCOORD_0":22
					},
					"indices":23,
					"material":1
				}
			]
		},
		{
			"name":"Plane.007",
			"primitives":[
				{
					"attributes":{
						"POSITION":24,
						"NORMAL":25,
						"TEXCOORD_0":26
					},
					"indices":27,
					"material":2
				}
			]
		},
		{
			"name":"Plane.002",
			"primitives":[
				{
					"attributes":{
						"POSITION":28,
						"NORMAL":29,
						"TEXCOORD_0":30
					},
					"indices":27,
					"material":3
				}
			]
		}
	],
	"textures":[
		{
			"sampler":0,
			"source":0
		},
		{
			"sampler":0,
			"source":0
		}
	],
	"images":[
		{
			"mimeType":"image/png",
			"name":"LINEAR",
			"uri":"textures/LINEAR.png"
		}
	],
	"accessors":[
		{
			"bufferView":0,
			"componentType":5126,
			"count":188,
			"max":[
				1,
				2,
				1
			],
			"min":[
				-1,
				2.4735924419871935e-09,
				-1
			],
			"type":"VEC3"
		},
		{
			"bufferView":1,
			"componentType":5126,
			"count":188,
			"type":"VEC3"
		},
		{
			"bufferView":2,
			"componentType":5126,
			"count":188,
			"type":"VEC2"
		},
		{
			"bufferView":3,
			"componentType":5123,
			"count":900,
			"type":"SCALAR"
		},
		{
			"bufferView":4,
			"componentType":5126,
			"count":527,
			"max":[
				1,
				3.0005059242248535,
				1
			],
			"min":[
				-1,
				-1.7837883234024048,
				-1
			],
			"type":"VEC3"
		},
		{
			"bufferView":5,
			"componentType":5126,
			"count":527,
			"type":"VEC3"
		},
		{
			"bufferView":6,
			"componentType":5126,
			"count":527,
			"type":"VEC2"
		},
		{
			"bufferView":7,
			"componentType":5123,
			"count":2778,
			"type":"SCALAR"
		},
		{
			"bufferView":8,
			"componentType":5126,
			"count":498,
			"max":[
				1.1533877849578857,
				1.6484825611114502,
				1.1711807250976562
			],
			"min":[
				-1.1533877849578857,
				6.036248123564292e-08,
				-1.1711807250976562
			],
			"type":"VEC3"
		},
		{
			"bufferView":9,
			"componentType":5126,
			"count":498,
			"type":"VEC3"
		},
		{
			"bufferView":10,
			"componentType":5126,
			"count":498,
			"type":"VEC2"
		},
		{
			"bufferView":11,
			"componentType":5123,
			"count":2928,
			"type":"SCALAR"
		},
		{
			"bufferView":12,
			"componentType":5126,
			"count":516,
			"max":[
				1.1533877849578857,
				1.6484825611114502,
				1.1711807250976562
			],
			"min":[
				-1.1533877849578857,
				6.036248123564292e-08,
				-1.1711807250976562
			],
			"type":"VEC3"
		},
		{
			"bufferView":13,
			"componentType":5126,
			"count":516,
			"type":"VEC3"
		},
		{
			"bufferView":14,
			"componentType":5126,
			"count":516,
			"type":"VEC2"
		},
		{
			"bufferView":15,
			"componentType":5123,
			"count":2928,
			"type":"SCALAR"
		},
		{
			"bufferView":16,
			"componentType":5126,
			"count":626,
			"max":[
				1,
				3.0005059242248535,
				1
			],
			"min":[
				-1,
				-1.7837883234024048,
				-1
			],
			"type":"VEC3"
		},
		{
			"bufferView":17,
			"componentType":5126,
			"count":626,
			"type":"VEC3"
		},
		{
			"bufferView":18,
			"componentType":5126,
			"count":626,
			"type":"VEC2"
		},
		{
			"bufferView":19,
			"componentType":5123,
			"count":3564,
			"type":"SCALAR"
		},
		{
			"bufferView":20,
			"componentType":5126,
			"count":32,
			"max":[
				1,
				1.259535312652588,
				1
			],
			"min":[
				-1,
				0,
				-1
			],
			"type":"VEC3"
		},
		{
			"bufferView":21,
			"componentType":5126,
			"count":32,
			"type":"VEC3"
		},
		{
			"bufferView":22,
			"componentType":5126,
			"count":32,
			"type":"VEC2"
		},
		{
			"bufferView":23,
			"componentType":5123,
			"count":90,
			"type":"SCALAR"
		},
		{
			"bufferView":24,
			"componentType":5126,
			"count":4,
			"max":[
				1,
				0,
				1
			],
			"min":[
				-1,
				0,
				-1
			],
			"type":"VEC3"
		},
		{
			"bufferView":25,
			"componentType":5126,
			"count":4,
			"type":"VEC3"
		},
		{
			"bufferView":26,
			"componentType":5126,
			"count":4,
			"type":"VEC2"
		},
		{
			"bufferView":27,
			"componentType":5123,
			"count":6,
			"type":"SCALAR"
		},
		{
			"bufferView":28,
			"componentType":5126,
			"count":4,
			"max":[
				1,
				0,
				1
			],
			"min":[
				-1,
				0,
				-1
			],
			"type":"VEC3"
		},
		{
			"bufferView":29,
			"componentType":5126,
			"count":4,
			"type":"VEC3"
		},
		{
			"bufferView":30,
			"componentType":5126,
			"count":4,
			"type":"VEC2"
		},
		{
			"bufferView":31,
			"componentType":5126,
			"count":2,
			"max":[
				8.333333333333334
			],
			"min":[
				0
			],
			"type":"SCALAR"
		},
		{
			"bufferView":32,
			"componentType":5126,
			"count":2,
			"type":"VEC3"
		},
		{
			"bufferView":33,
			"componentType":5126,
			"count":251,
			"max":[
				8.333333333333334
			],
			"min":[
				0
			],
			"type":"SCALAR"
		},
		{
			"bufferView":34,
			"componentType":5126,
			"count":251,
			"type":"VEC4"
		},
		{
			"bufferView":35,
			"componentType":5126,
			"count":2,
			"type":"VEC3"
		}
	],
	"bufferViews":[
		{
			"buffer":0,
			"byteLength":2256,
			"byteOffset":0,
			"target":34962
		},
		{
			"buffer":0,
			"byteLength":2256,
			"byteOffset":2256,
			"target":34962
		},
		{
			"buffer":0,
			"byteLength":1504,
			"byteOffset":4512,
			"target":34962
		},
		{
			"buffer":0,
			"byteLength":1800,
			"byteOffset":6016,
			"target":34963
		},
		{
			"buffer":0,
			"byteLength":6324,
			"byteOffset":7816,
			"target":34962
		},
		{
			"buffer":0,
			"byteLength":6324,
			"byteOffset":14140,
			"target":34962
		},
		{
			"buffer":0,
			"byteLength":4216,
			"byteOffset":20464,
			"target":34962
		},
		{
			"buffer":0,
			"byteLength":5556,
			"byteOffset":24680,
			"target":34963
		},
		{
			"buffer":0,
			"byteLength":5976,
			"byteOffset":30236,
			"target":34962
		},
		{
			"buffer":0,
			"byteLength":5976,
			"byteOffset":36212,
			"target":34962
		},
		{
			"buffer":0,
			"byteLength":3984,
			"byteOffset":42188,
			"target":34962
		},
		{
			"buffer":0,
			"byteLength":5856,
			"byteOffset":46172,
			"target":34963
		},
		{
			"buffer":0,
			"byteLength":6192,
			"byteOffset":52028,
			"target":34962
		},
		{
			"buffer":0,
			"byteLength":6192,
			"byteOffset":58220,
			"target":34962
		},
		{
			"buffer":0,
			"byteLength":4128,
			"byteOffset":64412,
			"target":34962
		},
		{
			"buffer":0,
			"byteLength":5856,
			"byteOffset":68540,
			"target":34963
		},
		{
			"buffer":0,
			"byteLength":7512,
			"byteOffset":74396,
			"target":34962
		},
		{
			"buffer":0,
			"byteLength":7512,
			"byteOffset":81908,
			"target":34962
		},
		{
			"buffer":0,
			"byteLength":5008,
			"byteOffset":89420,
			"target":34962
		},
		{
			"buffer":0,
			"byteLength":7128,
			"byteOffset":94428,
			"target":34963
		},
		{
			"buffer":0,
			"byteLength":384,
			"byteOffset":101556,
			"target":34962
		},
		{
			"buffer":0,
			"byteLength":384,
			"byteOffset":101940,
			"target":34962
		},
		{
			"buffer":0,
			"byteLength":256,
			"byteOffset":102324,
			"target":34962
		},
		{
			"buffer":0,
			"byteLength":180,
			"byteOffset":102580,
			"target":34963
		},
		{
			"buffer":0,
			"byteLength":48,
			"byteOffset":102760,
			"target":34962
		},
		{
			"buffer":0,
			"byteLength":48,
			"byteOffset":102808,
			"target":34962
		},
		{
			"buffer":0,
			"byteLength":32,
			"byteOffset":102856,
			"target":34962
		},
		{
			"buffer":0,
			"byteLength":12,
			"byteOffset":102888,
			"target":34963
		},
		{
			"buffer":0,
			"byteLength":48,
			"byteOffset":102900,
			"target":34962
		},
		{
			"buffer":0,
			"byteLength":48,
			"byteOffset":102948,
			"target":34962
		},
		{
			"buffer":0,
			"byteLength":32,
			"byteOffset":102996,
			"target":34962
		},
		{
			"buffer":0,
			"byteLength":8,
			"byteOffset":103028
		},
		{
			"buffer":0,
			"byteLength":24,
			"byteOffset":103036
		},
		{
			"buffer":0,
			"byteLength":1004,
			"byteOffset":103060
		},
		{
			"buffer":0,
			"byteLength":4016,
			"byteOffset":104064
		},
		{
			"buffer":0,
			"byteLength":24,
			"byteOffset":108080
		}
	],
	"samplers":[
		{
			"magFilter":9729,
			"minFilter":9987
		}
	],
	"buffers":[
		{
			"byteLength":108104,
			"uri":"cube.bin"
		}
	]
}
